<?xml version="1.0" encoding="UTF-8" standalone="no"?>
<!-- Created with Inkscape (http://www.inkscape.org/) -->

<svg
   xmlns:dc="http://purl.org/dc/elements/1.1/"
   xmlns:cc="http://creativecommons.org/ns#"
   xmlns:rdf="http://www.w3.org/1999/02/22-rdf-syntax-ns#"
   xmlns:svg="http://www.w3.org/2000/svg"
   xmlns="http://www.w3.org/2000/svg"
   xmlns:sodipodi="http://sodipodi.sourceforge.net/DTD/sodipodi-0.dtd"
   xmlns:inkscape="http://www.inkscape.org/namespaces/inkscape"
   width="210mm"
   height="297mm"
   viewBox="0 0 210 297"
   version="1.1"
   id="svg8"
   inkscape:version="0.92.4 (5da689c313, 2019-01-14)"
   sodipodi:docname="drawing.svg">
  <defs
     id="defs2" />
  <sodipodi:namedview
     id="base"
     pagecolor="#ffffff"
     bordercolor="#666666"
     borderopacity="1.0"
     inkscape:pageopacity="0.0"
     inkscape:pageshadow="2"
     inkscape:zoom="1.979899"
     inkscape:cx="25.860587"
     inkscape:cy="537.48249"
     inkscape:document-units="mm"
     inkscape:current-layer="layer1"
     showgrid="false"
     inkscape:snap-global="true"
     inkscape:window-width="1366"
     inkscape:window-height="715"
     inkscape:window-x="-8"
     inkscape:window-y="-8"
     inkscape:window-maximized="1" />
  <metadata
     id="metadata5">
    <rdf:RDF>
      <cc:Work
         rdf:about="">
        <dc:format>image/svg+xml</dc:format>
        <dc:type
           rdf:resource="http://purl.org/dc/dcmitype/StillImage" />
        <dc:title></dc:title>
      </cc:Work>
    </rdf:RDF>
  </metadata>
  <g
     inkscape:label="Layer 1"
     inkscape:groupmode="layer"
     id="layer1">
    <path
       style="opacity:0.5;fill:#008080;fill-opacity:1;fill-rule:evenodd;stroke:none;stroke-width:24.71325111;stroke-linecap:round;stroke-linejoin:miter;stroke-miterlimit:4;stroke-dasharray:none;stroke-dashoffset:0;stroke-opacity:1;paint-order:stroke fill markers"
       d="M -29.552734 533.67969 L -29.552734 537.07422 L -32.947266 537.07422 L -32.947266 540.4668 L -36.339844 540.4668 L -36.339844 543.85938 L -39.732422 543.85938 L -39.732422 547.25195 L -39.732422 550.64453 L -36.339844 550.64453 L -36.339844 554.03711 L -32.947266 554.03711 L -32.947266 550.64453 L -29.552734 550.64453 L -29.552734 554.03711 L -26.160156 554.03711 L -22.767578 554.03711 L -22.767578 550.64453 L -19.375 550.64453 L -19.375 554.03711 L -15.982422 554.03711 L -15.982422 550.64453 L -12.589844 550.64453 L -12.589844 547.25195 L -12.589844 543.85938 L -15.982422 543.85938 L -15.982422 540.4668 L -19.375 540.4668 L -19.375 537.07422 L -22.767578 537.07422 L -22.767578 533.67969 L -26.160156 533.67969 L -29.552734 533.67969 z M -15.982422 554.03711 L -15.982422 557.42969 L -12.589844 557.42969 L -12.589844 554.03711 L -15.982422 554.03711 z M -15.982422 557.42969 L -19.375 557.42969 L -19.375 560.82422 L -15.982422 560.82422 L -15.982422 557.42969 z M -36.339844 554.03711 L -39.732422 554.03711 L -39.732422 557.42969 L -36.339844 557.42969 L -36.339844 554.03711 z M -36.339844 557.42969 L -36.339844 560.82422 L -32.947266 560.82422 L -32.947266 557.42969 L -36.339844 557.42969 z M -32.947266 543.85938 L -29.552734 543.85938 L -29.552734 547.25195 L -32.947266 547.25195 L -32.947266 543.85938 z M -22.767578 543.85938 L -19.375 543.85938 L -19.375 547.25195 L -22.767578 547.25195 L -22.767578 543.85938 z "
       transform="scale(0.26458333)"
       id="rect894" />
    <path
       style="opacity:0.5;fill:#008080;fill-opacity:1;fill-rule:evenodd;stroke:none;stroke-width:6.53871441;stroke-linecap:round;stroke-linejoin:miter;stroke-miterlimit:4;stroke-dasharray:none;stroke-dashoffset:0;stroke-opacity:1;paint-order:stroke fill markers"
       d="m -9.5657563,152.53136 v 0.89762 h 0.8976201 v -0.89762 z m 0.8976201,0.89762 v 0.89762 h -0.8976201 v 0.89762 h -0.8976197 v 0.89762 h -0.897618 v 0.89814 0.89762 0.89762 h 0.897618 v -0.89762 -0.89762 h 0.8976197 v 0.89762 0.89762 h 0.8976201 v -0.89762 h 0.8976201 0.898136 0.8976201 0.8976202 0.8976174 v 0.89762 h 0.8976201 v -0.89762 -0.89762 h 0.8976202 v 0.89762 0.89762 h 0.8976201 v -0.89762 -0.89762 -0.89814 h -0.8976201 v -0.89762 h -0.8976202 v -0.89762 h -0.8976201 v -0.89762 h -0.8976174 v 0.89762 H -5.97476 -6.8723801 -7.7705161 v -0.89762 z m 4.4886138,0 h 0.8976201 v -0.89762 h -0.8976201 z m 0,5.38624 H -5.0771398 -5.97476 v 0.89762 h 0.8976202 0.8976174 z m -4.4886138,0 v 0.89762 h 0.8976201 0.898136 v -0.89762 h -0.898136 z m 0,-3.591 h 0.8976201 v 0.89762 h -0.8976201 z m 3.5909964,0 h 0.8976174 v 0.89762 h -0.8976174 z"
       id="rect894-3"
       inkscape:connector-curvature="0" />
    <path
       style="opacity:0.5;fill:#008080;fill-opacity:1;fill-rule:evenodd;stroke:none;stroke-width:6.53871441;stroke-linecap:round;stroke-linejoin:miter;stroke-miterlimit:4;stroke-dasharray:none;stroke-dashoffset:0;stroke-opacity:1;paint-order:stroke fill markers"
       d="m -8.5898797,165.22697 v 0.89762 h -0.89762 -0.8976203 -0.897617 v 0.89762 h -0.89762 v 0.89814 0.89762 0.89762 h 0.89762 0.897617 v 0.89762 h -0.897617 v 0.89762 h 0.897617 v 0.89762 h 0.8976203 0.89762 v -0.89762 h -0.89762 v -0.89762 h 0.89762 0.897621 v -0.89762 h 0.898136 0.89762 v 0.89762 h 0.89762 0.897617 v 0.89762 h -0.897617 v 0.89762 h 0.897617 0.89762 v -0.89762 h 0.897621 v -0.89762 h -0.897621 v -0.89762 h 0.897621 0.89762 v -0.89762 -0.89762 -0.89814 h -0.89762 v -0.89762 h -0.897621 -0.89762 -0.897617 v -0.89762 h -0.89762 -0.89762 -0.898136 z m 2.693377,5.38624 h -0.89762 -0.898136 v 0.89762 h 0.898136 0.89762 z m -3.590997,-2.69286 h 0.89762 0.897621 v 0.89762 h -0.897621 -0.89762 z m 3.590997,0 h 0.89762 0.897617 v 0.89762 h -0.897617 -0.89762 z"
       id="rect894-90-0-9"
       inkscape:connector-curvature="0" />
    <path
       style="opacity:0.5;fill:#008080;fill-opacity:1;fill-rule:evenodd;stroke:none;stroke-width:6.53871441;stroke-linecap:round;stroke-linejoin:miter;stroke-miterlimit:4;stroke-dasharray:none;stroke-dashoffset:0;stroke-opacity:1;paint-order:stroke fill markers"
       d="m -27.561031,165.21444 v 0.89814 h -0.89762 v 0.89762 0.89762 h -0.89762 -0.89762 -0.898136 -0.89762 -0.89762 v 0.89762 h -0.897618 v 0.89762 0.89762 0.89762 0.89762 h 0.897618 0.89762 0.89762 0.898136 0.89762 0.89762 0.89762 0.897618 0.89762 0.89762 0.89762 0.898136 0.89762 0.897621 0.897617 v -0.89762 -0.89762 -0.89762 -0.89762 h -0.897617 v -0.89762 h -0.897621 -0.89762 -0.898136 -0.89762 -0.89762 v -0.89762 -0.89762 h -0.89762 v -0.89814 z"
       id="rect894-90-0-38"
       inkscape:connector-curvature="0" />
    <path
       style="opacity:0.5;fill:#008080;fill-opacity:1;fill-rule:evenodd;stroke:none;stroke-width:6.53871441;stroke-linecap:round;stroke-linejoin:miter;stroke-miterlimit:4;stroke-dasharray:none;stroke-dashoffset:0;stroke-opacity:1;paint-order:stroke fill markers"
       d="m -45.161693,137.22476 v 0.89813 h -0.89762 v 0.89762 h -0.89762 v 0.89762 h -0.897617 v 0.89762 h -0.898139 v 0.89762 h -0.897618 v 0.89762 0.89762 0.89814 0.89762 0.89762 0.89762 0.89762 0.89762 0.89762 0.89813 0.89762 0.89762 0.89762 0.89762 h 0.897618 0.898139 0.897617 0.89762 0.89762 0.89762 v -0.89762 -0.89762 -0.89762 -0.89762 -0.89813 -0.89762 -0.89762 h 0.897621 0.897617 v -0.89762 h 0.898139 v -0.89762 h 0.897617 v -0.89762 h 0.89762 v -0.89762 h 0.880568 v 0.006 h 0.897617 v 0.89762 h 0.897621 v 0.89762 h 0.89762 v 0.89762 h 0.89762 v 0.89762 h 0.89762 0.89762 v 0.89762 0.89814 0.89762 0.89762 0.89762 0.89762 0.89762 h 0.898136 0.897618 0.89762 0.89762 0.89762 0.89762 v -0.89762 -0.89762 -0.89762 -0.89762 -0.89762 -0.89814 -0.89762 -0.89762 -0.89762 -0.89762 -0.89762 -0.89762 -0.89762 -0.89813 h -0.89762 v -0.89762 h -0.89762 v -0.89762 h -0.89762 v -0.89762 h -0.89762 v -0.89762 h -0.897618 v -0.89762 h -0.898136 -0.89762 -0.89762 -0.89762 -0.89762 -0.897621 -0.880565 v -0.006 h -0.89762 -0.89762 -0.897617 -0.898139 -0.897617 -0.897621 z"
       id="rect894-90-0-38-50-4-5"
       inkscape:connector-curvature="0" />
  </g>
</svg>
