<svg width="9.1815mm" height="9.182mm" version="1.1" viewBox="0 0 9.1815 9.182" xmlns="http://www.w3.org/2000/svg">
	<g transform="translate(-52.106 -142.73)">
		<path d="m55.799 143.73v0.89814h-0.89814v0.89762h-0.89762v0.89762h-0.89762v1.7952h0.89762v0.89762h0.89762v-0.89762h0.89814v0.89762h1.7952v-0.89762h0.89762v0.89762h0.89762v-0.89762h0.89762v-1.7952h-0.89762v-0.89762h-0.89762v-0.89762h-0.89762v-0.89814h-0.89762zm3.5905 5.3862v0.89762h0.89762v-0.89762zm0 0.89762h-0.89762v0.89814h0.89762zm-5.3862-0.89762h-0.89762v0.89762h0.89762zm0 0.89762v0.89814h0.89762v-0.89814zm0.89762-3.5905h0.89814v0.89761h-0.89814zm2.6934 0h0.89762v0.89761h-0.89762z" fill="#1bff26" fill-rule="evenodd" style="paint-order:stroke fill markers"/>
	</g>
</svg>
