<svg width="11.874mm" height="9.1815mm" version="1.1" viewBox="0 0 11.874 9.1815" xmlns="http://www.w3.org/2000/svg">
	<g transform="translate(-29.593 -201.69)">
		<path d="m32.388 202.69v0.89762h0.89762v-0.89762zm0.89762 0.89762v0.89762h-0.89762v0.89762h-0.89762v0.89762h-0.89761v2.6934h0.89761v-1.7952h0.89762v1.7952h0.89762v-0.89762h4.4886v0.89762h0.89762v-1.7952h0.89762v1.7952h0.89762v-2.6934h-0.89762v-0.89762h-0.89762v-0.89762h-0.89762v-0.89762h-0.89762v0.89762h-2.6934v-0.89762zm4.4886 0h0.89762v-0.89762h-0.89762zm0 5.3862h-1.7952v0.89762h1.7952zm-4.4886 0v0.89762h1.7958v-0.89762h-0.89814zm0-3.591h0.89762v0.89762h-0.89762zm3.591 0h0.89762v0.89762h-0.89762z" fill="#1bff26" fill-rule="evenodd" style="paint-order:stroke fill markers"/>
	</g>
</svg>
